<?xml version="1.0" encoding="UTF-8"?>
<!DOCTYPE svg PUBLIC "-//W3C//DTD SVG 1.1//EN" "http://www.w3.org/Graphics/SVG/1.1/DTD/svg11.dtd">
<!-- Creator: CorelDRAW X7 -->
<svg xmlns="http://www.w3.org/2000/svg" xml:space="preserve" width="3000px" height="3000px" version="1.1" style="shape-rendering:geometricPrecision; text-rendering:geometricPrecision; image-rendering:optimizeQuality; fill-rule:evenodd; clip-rule:evenodd"
viewBox="0 0 3000 3000"
 xmlns:xlink="http://www.w3.org/1999/xlink">
 <defs>
  <style type="text/css">
   <![CDATA[
    .fil1 {fill:black}
    .fil0 {fill:white}
    .fil3 {fill:black;fill-rule:nonzero}
    .fil2 {fill:url(#id0);fill-rule:nonzero}
   ]]>
  </style>
  <linearGradient id="id0" gradientUnits="userSpaceOnUse" x1="517.133" y1="1748.21" x2="1188.51" y2="1360.6">
   <stop offset="0" style="stop-opacity:1; stop-color:#FF6400"/>
   <stop offset="1" style="stop-opacity:1; stop-color:#E60000"/>
  </linearGradient>
 </defs>
 <g id="Layer_x0020_1">
  <metadata id="CorelCorpID_0Corel-Layer"/>
  <rect class="fil0" width="3000" height="3000"/>
  <path class="fil1" d="M2315 1564l0 -37 270 0 0 37 -270 0zm310 76l-143 0 0 -29 -31 0 0 29 -136 0 0 -45 301 0 0 -98 -147 0 0 -37 -31 0 0 37 -153 0 0 269 -37 58 26 16 41 -65 0 -104 52 0 0 95 -36 58 26 16 41 -65 0 -36 177 0 0 67 -67 0 0 31 98 0 0 -129 -208 0 0 -37 227 0 0 -31zm-508 62l-33 -33 -22 22 33 32 22 -21zm-110 87l33 -33 -21 -21 -33 32 21 22zm-49 -22l-32 -32 -22 21 33 33 21 -22zm48 -133l0 51 -68 0 0 -51 68 0zm-99 -31l0 113 130 0 0 -113 -130 0zm142 -66l-153 0 0 31 153 0 0 -31zm1 270l-156 0 0 31 156 0 0 -31zm148 -234l-23 0 0 -49 -31 0 0 49 -90 0 0 31 90 0 0 203 -51 0 0 31 82 0 0 -234 23 0 0 -31zm0 -102l-351 0 0 317 -26 34 25 18 32 -42 0 -296 320 0 0 -31zm-474 45l-35 -36 -22 22 36 36 21 -22zm-241 -48l-89 129 25 18 28 -41 0 271 31 0 0 -315 31 -44 -26 -18zm67 372l55 -57 0 -188 48 0 0 243 84 0 30 -35 -23 -20 -21 24 -40 0 0 -212 86 0 0 -30 -164 0 0 -100 -31 0 0 100 -66 0 0 30 66 0 0 175 -46 49 22 21z"/>
  <path class="fil1" d="M1958 1191l0 118c0,5 0,10 1,15 0,6 1,12 3,18 1,6 4,13 7,19 3,6 7,11 13,16 5,4 12,8 20,11 8,3 18,5 30,5 14,0 27,-3 36,-7 10,-4 18,-10 24,-18 6,-7 10,-16 12,-26 3,-10 4,-21 4,-33l0 -118 -12 0 0 118c0,11 -1,21 -3,30 -2,9 -6,17 -11,23 -5,7 -12,12 -20,15 -8,3 -18,5 -30,5 -10,0 -18,-1 -25,-4 -6,-2 -12,-5 -17,-10 -4,-4 -8,-8 -10,-14 -3,-5 -5,-10 -6,-16 -2,-5 -3,-10 -3,-15 -1,-5 -1,-10 -1,-14l0 -118 -12 0zm300 99c-1,-8 -3,-15 -6,-21 -4,-6 -8,-10 -13,-14 -5,-4 -11,-7 -18,-9 -7,-2 -14,-3 -22,-3 -10,0 -19,2 -27,6 -8,4 -15,9 -21,16 -5,6 -9,14 -12,23 -3,9 -4,18 -4,28 0,10 1,19 3,28 3,9 7,17 12,24 5,7 12,13 20,17 8,4 18,6 29,6 8,0 15,-1 22,-3 7,-3 13,-6 18,-11 5,-4 10,-10 13,-16 4,-7 6,-15 7,-23l-10 0c-1,6 -3,12 -6,18 -3,5 -6,10 -10,14 -5,4 -10,7 -15,9 -6,2 -12,3 -19,3 -9,0 -17,-2 -23,-5 -7,-3 -13,-8 -18,-14 -4,-6 -7,-13 -10,-21 -2,-8 -3,-17 -3,-26 0,-8 1,-16 4,-24 2,-7 5,-14 10,-20 5,-6 10,-11 17,-14 7,-4 15,-6 23,-6 7,0 13,1 18,3 6,1 11,4 15,7 4,3 8,7 10,12 3,4 5,10 5,16l11 0zm119 44c0,2 0,5 -1,11 -1,5 -3,10 -7,16 -4,5 -9,10 -16,15 -7,4 -17,6 -28,6 -13,0 -22,-3 -28,-9 -6,-6 -10,-13 -10,-22 0,-10 4,-18 10,-23 7,-5 17,-8 29,-9 5,-1 10,-2 16,-2 5,0 10,-1 14,-1 5,-1 9,-2 13,-3 4,-1 6,-3 8,-5l0 26zm11 -54c0,-7 -2,-13 -4,-18 -3,-5 -7,-9 -12,-11 -4,-3 -10,-5 -16,-6 -5,-1 -11,-2 -18,-2 -16,0 -29,4 -39,12 -9,8 -14,19 -15,35l11 0c1,-12 5,-22 13,-28 7,-7 18,-10 30,-10 8,0 15,1 20,3 5,2 9,4 12,7 3,3 5,6 6,9 1,3 2,6 2,9 0,6 -1,11 -1,14 -1,3 -3,6 -6,8 -3,2 -8,4 -15,5 -6,1 -15,2 -27,2 -6,1 -12,2 -18,3 -6,1 -12,4 -17,7 -5,3 -9,7 -12,12 -3,5 -5,12 -5,20 0,8 1,14 4,19 2,5 5,9 10,12 4,3 9,6 15,7 6,1 12,2 18,2 7,0 13,-1 19,-2 6,-2 11,-4 15,-7 5,-3 9,-6 12,-10 3,-4 5,-8 7,-12l0 0 0 7c0,3 1,6 1,8 1,3 1,5 3,7 1,2 3,3 5,4 3,1 6,2 10,2 2,0 3,0 5,0 1,-1 2,-1 4,-1l0 -9c-3,0 -6,1 -8,1 -2,0 -4,-1 -5,-2 -2,-1 -3,-2 -3,-4 -1,-1 -1,-3 -1,-5 0,-2 0,-4 0,-6l0 -82zm43 -24l0 132 10 0 0 -132 30 0 0 -10 -30 0 0 -28c0,-8 2,-13 6,-16 4,-2 9,-4 15,-4 4,0 8,1 12,2l0 -9c-4,-1 -8,-2 -12,-2 -4,0 -8,1 -12,2 -4,1 -7,3 -10,5 -3,2 -5,5 -7,9 -1,3 -2,7 -2,12l0 29 -25 0 0 10 25 0zm175 63c0,-11 -1,-20 -3,-29 -2,-10 -6,-18 -11,-24 -5,-7 -12,-13 -20,-17 -8,-4 -18,-6 -29,-6 -10,0 -19,2 -27,7 -8,4 -15,10 -20,17 -5,7 -9,15 -12,24 -2,9 -3,19 -3,29 0,9 1,19 4,27 2,9 6,17 12,23 5,7 11,12 19,15 8,4 17,6 27,6 17,0 31,-4 42,-13 10,-9 17,-21 19,-38l-10 0c-3,13 -8,23 -17,31 -9,7 -20,11 -34,11 -8,0 -16,-2 -23,-5 -6,-4 -11,-8 -16,-14 -4,-6 -8,-13 -10,-21 -2,-7 -3,-15 -3,-23l115 0zm-115 -10c1,-7 3,-13 5,-20 3,-7 6,-13 11,-19 4,-5 9,-9 15,-13 7,-3 14,-5 21,-5 9,0 16,2 22,5 6,3 12,8 16,13 5,5 8,11 10,18 3,7 4,14 4,21l-104 0z"/>
  <path class="fil2" d="M485 1453c-26,-16 -48,-42 -48,-60 0,-69 190,-127 416,-127 8,0 17,0 26,1l21 -10c-16,0 -31,-1 -47,-1 -239,0 -426,60 -426,137 0,1 0,2 1,3 -5,20 -7,64 -8,88l65 -31zm66 25l-129 50c1,9 3,13 5,22l145 -65c-4,-1 -17,-6 -21,-7zm727 -85c0,-34 -36,-64 -96,-87l-14 5c62,22 100,51 100,82 0,68 -190,126 -415,126 -68,0 -132,-6 -189,-15l-230 76c48,157 218,272 419,272 238,0 433,-163 433,-364 0,-23 -3,-66 -8,-91 0,-2 0,-3 0,-4z"/>
  <path class="fil3" d="M1290 1235l-19 -46 -824 369 843 -323zm-91 -87l-824 368 843 -323 -19 -45z"/>
 </g>
</svg>
